<svg width="24" height="24" viewBox="0 0 24 24" fill="none" xmlns="http://www.w3.org/2000/svg">
<path d="M23.9998 11.8528C23.9717 9.56596 23.2907 7.33478 22.037 5.42201C20.7832 3.50925 19.0091 1.99455 16.9235 1.05632C14.8377 0.118087 12.5273 -0.204603 10.2643 0.126232C8.00141 0.457082 5.88011 1.42767 4.15031 2.92374C2.42049 4.41979 1.1542 6.379 0.500552 8.57061C-0.153077 10.7622 -0.166847 13.095 0.460891 15.2942C1.08863 17.4934 2.33172 19.4673 4.04376 20.9837C5.75579 22.5001 7.8655 23.4957 10.1244 23.8531V15.3479H7.12431V11.8528H10.1244V9.1977C10.0549 8.58037 10.1218 7.95529 10.3204 7.36661C10.519 6.77793 10.8444 6.24002 11.2736 5.79083C11.7027 5.34163 12.2252 4.9921 12.8042 4.76693C13.3832 4.54174 14.0047 4.44639 14.6245 4.48761C15.5242 4.49992 16.4219 4.58016 17.3096 4.72762V7.7277H15.8095C15.5509 7.69508 15.2881 7.721 15.0409 7.80354C14.7936 7.88609 14.568 8.02315 14.3808 8.2046C14.1935 8.38604 14.0495 8.60724 13.9594 8.85179C13.8691 9.09645 13.835 9.3582 13.8595 9.61771V11.8828H17.1896L16.6496 15.3779H13.8745V23.7781C16.7094 23.3298 19.2898 21.8801 21.1474 19.6922C23.0051 17.5042 24.017 14.723 23.9998 11.8528Z" fill="#213B54"/>
</svg>
