<svg width="22" height="24" viewBox="0 0 22 24" fill="none" xmlns="http://www.w3.org/2000/svg">
<path d="M21.035 6.79686C21.035 5.80904 20.504 5.58062 20.504 5.58062C20.504 5.58062 11.5424 0.416043 10.9343 0.113465C10.6317 -0.0378218 10.3262 -0.0378218 10.0236 0.113465C10.0236 0.113465 0.682283 5.58062 0.379706 5.80903C0.228417 5.96032 0.0771291 6.18874 1.53714e-06 6.41715L5.54522e-07 17.657C5.08101e-07 18.188 0.608121 18.4935 0.608121 18.4935L9.94945 23.8865C10.3292 24.0378 10.7089 24.0378 11.0886 23.8865C11.0886 23.8865 19.3649 19.1017 20.2786 18.5707C20.8096 18.3423 21.1151 17.8113 21.038 17.2031C21.035 17.3515 21.035 7.78469 21.035 6.79686ZM17.3122 17.5799C15.4136 18.6419 10.8572 21.2998 10.8572 21.2998C10.6288 21.4511 10.2491 21.4511 9.94648 21.2998L2.58081 17.0489C2.58081 17.0489 2.04981 16.7463 2.04981 16.3666L2.04981 7.55627C2.04981 7.40498 2.2011 7.17657 2.27823 7.02528C2.50665 6.87399 9.87232 2.62011 9.87232 2.62011C10.1007 2.46882 10.4033 2.46882 10.6317 2.62011C11.0886 2.84853 18.0745 6.94815 18.0745 6.94815C18.0745 6.94815 18.4542 7.09944 18.4542 7.85885L18.4542 10.0599L10.252 5.04666L10.252 6.94518C10.252 7.47618 10.4804 7.85588 10.8601 8.31271L18.2258 12.7208C18.3771 12.9493 18.5284 13.329 18.5284 13.6315L18.5284 15.6072L10.252 10.5939L10.252 12.6437C10.252 13.1006 10.4033 13.5544 10.783 13.7828L17.3122 17.5799Z" fill="#10B5EA"/>
</svg>
