<svg width="24" height="24" viewBox="0 0 24 24" fill="none" xmlns="http://www.w3.org/2000/svg">
<path d="M18.6976 12C18.6976 15.699 15.6989 18.6977 11.9999 18.6977C8.3009 18.6977 5.30225 15.699 5.30225 12C5.30225 8.30097 8.3009 5.30232 11.9999 5.30232C15.6989 5.30232 18.6976 8.30097 18.6976 12Z" fill="#213B54"/>
<path fill-rule="evenodd" clip-rule="evenodd" d="M12 0C12.4624 0 12.8372 0.374835 12.8372 0.837209V1.95349C12.8372 2.41586 12.4624 2.7907 12 2.7907C11.5376 2.7907 11.1628 2.41586 11.1628 1.95349V0.837209C11.1628 0.374835 11.5376 0 12 0ZM0 12C0 11.5376 0.374835 11.1628 0.837209 11.1628H1.95349C2.41586 11.1628 2.7907 11.5376 2.7907 12C2.7907 12.4624 2.41586 12.8372 1.95349 12.8372H0.837209C0.374835 12.8372 0 12.4624 0 12ZM21.2093 12C21.2093 11.5376 21.5842 11.1628 22.0465 11.1628H23.1628C23.6252 11.1628 24 11.5376 24 12C24 12.4624 23.6252 12.8372 23.1628 12.8372H22.0465C21.5842 12.8372 21.2093 12.4624 21.2093 12ZM12 21.2093C12.4624 21.2093 12.8372 21.5842 12.8372 22.0465V23.1628C12.8372 23.6252 12.4624 24 12 24C11.5376 24 11.1628 23.6252 11.1628 23.1628V22.0465C11.1628 21.5842 11.5376 21.2093 12 21.2093Z" fill="#213B54"/>
<path d="M3.51425 3.51447C3.8412 3.18752 4.3713 3.18752 4.69825 3.51447L5.13677 3.95299C5.46371 4.27993 5.46371 4.81002 5.13677 5.13698C4.80981 5.46393 4.27972 5.46393 3.95277 5.13698L3.51425 4.69846C3.18731 4.37151 3.18731 3.84141 3.51425 3.51447Z" fill="#213B54"/>
<path d="M20.4849 3.51477C20.8119 3.84172 20.8119 4.37182 20.4849 4.69876L20.0464 5.13728C19.7195 5.46423 19.1894 5.46423 18.8624 5.13728C18.5354 4.81033 18.5354 4.28024 18.8624 3.95329L19.3009 3.51477C19.6278 3.18783 20.158 3.18783 20.4849 3.51477Z" fill="#213B54"/>
<path d="M18.8624 18.8622C19.1894 18.5353 19.7195 18.5353 20.0464 18.8622L20.4849 19.3007C20.8119 19.6277 20.8119 20.1578 20.4849 20.4847C20.158 20.8117 19.6278 20.8117 19.3009 20.4847L18.8624 20.0463C18.5354 19.7193 18.5354 19.1892 18.8624 18.8622Z" fill="#213B54"/>
<path d="M5.13677 18.8625C5.46371 19.1895 5.46371 19.7195 5.13677 20.0465L4.69825 20.485C4.3713 20.812 3.8412 20.812 3.51425 20.485C3.18731 20.1581 3.18731 19.628 3.51425 19.301L3.95277 18.8625C4.27972 18.5356 4.80981 18.5356 5.13677 18.8625Z" fill="#213B54"/>
</svg>
