<svg width="24" height="24" viewBox="0 0 24 24" fill="none" xmlns="http://www.w3.org/2000/svg">
<path d="M19.7442 12C19.7442 16.277 16.277 19.7442 12 19.7442V21C16.9706 21 21 16.9706 21 12H19.7442ZM12 19.7442C7.72301 19.7442 4.25581 16.277 4.25581 12H3C3 16.9706 7.02944 21 12 21V19.7442ZM4.25581 12C4.25581 7.72301 7.72301 4.25581 12 4.25581V3C7.02944 3 3 7.02944 3 12H4.25581ZM14.9302 13.8837C12.2716 13.8837 10.1163 11.7284 10.1163 9.06977H8.86047C8.86047 12.422 11.578 15.1395 14.9302 15.1395V13.8837ZM19.0537 11.5554C18.2097 12.9522 16.6785 13.8837 14.9302 13.8837V15.1395C17.1362 15.1395 19.0666 13.9623 20.1286 12.2049L19.0537 11.5554ZM10.1163 9.06977C10.1163 7.32152 11.0478 5.79025 12.4446 4.94624L11.7951 3.87141C10.0377 4.93337 8.86047 6.8638 8.86047 9.06977H10.1163ZM12 4.25581C11.9259 4.25581 11.839 4.22239 11.776 4.15676C11.7225 4.10116 11.7102 4.04855 11.7072 4.02728C11.7037 4.00119 11.7055 3.92559 11.7951 3.87141L12.4446 4.94624C12.8658 4.69171 13.0013 4.22566 12.9517 3.8592C12.9003 3.47826 12.5999 3 12 3V4.25581ZM20.1286 12.2049C20.0744 12.2945 19.9988 12.2963 19.9727 12.2928C19.9515 12.2898 19.8988 12.2775 19.8432 12.224C19.7776 12.161 19.7442 12.0741 19.7442 12H21C21 11.4001 20.5217 11.0997 20.1408 11.0483C19.7743 10.9987 19.3083 11.1342 19.0537 11.5554L20.1286 12.2049Z" fill="#213B54"/>
</svg>
