<svg width="24" height="24" viewBox="0 0 24 24" fill="none" xmlns="http://www.w3.org/2000/svg">
<g id="Group 15">
<g id="Group">
<path id="Vector" d="M12 24C10.3802 24 8.80867 23.6826 7.32893 23.0569C5.89982 22.4524 4.61656 21.5873 3.51475 20.4853C2.41294 19.3832 1.54757 18.0999 0.943129 16.6711C0.317364 15.1913 0 13.6198 0 12C0 10.3802 0.317364 8.80867 0.943129 7.32893C1.54757 5.89983 2.41269 4.61656 3.51475 3.51475C4.6168 2.41269 5.90007 1.54757 7.32893 0.943129C8.80867 0.317364 10.3802 0 12 0C13.6198 0 15.1913 0.317364 16.6711 0.943129C18.1002 1.54757 19.3834 2.41269 20.4853 3.51475C21.5873 4.6168 22.4524 5.90007 23.0569 7.32893C23.6826 8.80867 24 10.3802 24 12C24 13.6198 23.6826 15.1913 23.0569 16.6711C22.4524 18.1002 21.5873 19.3834 20.4853 20.4853C19.3832 21.5871 18.0999 22.4524 16.6711 23.0569C15.1913 23.6826 13.6198 24 12 24ZM12 0.678093C5.75713 0.678093 0.678336 5.75689 0.678336 11.9998C0.678336 18.2426 5.75713 23.3214 12 23.3214C18.2429 23.3214 23.3217 18.2424 23.3217 11.9998C23.3217 5.75713 18.2429 0.678093 12 0.678093Z" fill="#213B54"/>
</g>
<g id="layer1">
<path id="path1009" d="M4.81687 5.24405L10.3906 12.6965L4.78174 18.7558H6.04417L10.9548 13.4507L14.9224 18.7558H19.2182L13.3307 10.8842L18.5515 5.24405H17.289L12.7667 10.1298L9.11267 5.24405H4.81687ZM6.67333 6.17385H8.6468L17.3615 17.826H15.388L6.67333 6.17385Z" fill="#213B54"/>
</g>
</g>
</svg>
