<svg width="248" height="197" viewBox="0 0 248 197" fill="none" xmlns="http://www.w3.org/2000/svg">
<g id="Group 47">
<g id="Group 42">
<path id="Vector 22" d="M0 131L35.3205 122L38 131H0Z" fill="#E1FBFF"/>
<g id="Group 41">
<g id="Group 40">
<path id="Vector 21" d="M147.176 41.2774C140.274 11.0717 165.768 4.19143 171.519 8.07425C181.358 6.38961 183.424 34.1397 192.683 23.5369C216.719 -3.98744 217.899 -10.81 236.333 21.7695C265.424 73.1841 231.44 66.1811 227.427 88.273C223.414 110.365 214.988 126.432 227.427 128.039C239.866 129.645 259.205 139.5 236.333 139.5C227.516 139.5 174.312 141.877 175.866 137.518C176.81 134.867 189.488 100.765 185.188 99.524C159.174 92.0136 167.11 95.1061 149.033 92.0136C153.848 85.7208 154.077 71.4831 147.176 41.2774Z" fill="#FFFBE8"/>
<g id="Group">
<path id="Vector" d="M187.091 97.6197C185.728 99.449 184.198 101.148 182.521 102.694L184.687 74.3445L55.6823 44.084L50.3843 45.2916L182.506 76.27L179.408 104.824C177.013 106.562 174.387 107.957 171.605 108.966C161.691 112.525 38.332 80.5151 38.24 80.4967V80.6661C38.714 111.605 27.9844 131.792 27.9844 131.792L162.885 164.621C172.889 162.825 180.834 151.799 180.834 151.799C184.976 136.921 187.04 101.157 187.229 97.6998C187.229 97.6836 187.225 97.6677 187.217 97.6536C187.209 97.6396 187.197 97.6279 187.183 97.6198C187.169 97.6117 187.154 97.6074 187.137 97.6074C187.121 97.6073 187.105 97.6116 187.091 97.6197ZM67.1336 128.074C65.8048 129.581 64.1547 130.771 62.305 131.555C60.4553 132.339 58.4532 132.698 56.4463 132.605C49.7657 132.375 43.6522 127.326 41.733 120.915C37.7935 107.774 50.92 94.1303 59.5344 99.5913L62.3878 100.19C66.99 101.212 69.8019 106.022 70.68 110.662C72.0451 117.792 69.9575 124.695 67.1336 128.074ZM109.018 118.57C102.563 116.753 96.0406 115.183 89.4654 113.865C89.6053 112.413 89.7415 110.956 89.8796 109.504C89.9716 109.535 108.841 113.002 109.422 113.491C109.556 113.607 109.537 113.382 109.018 118.57ZM153.303 146.285C151.974 147.792 150.324 148.982 148.474 149.766C146.624 150.55 144.622 150.909 142.615 150.816C135.935 150.586 129.821 145.537 127.902 139.131C123.963 125.99 137.087 112.341 145.704 117.806L148.558 118.405C153.16 119.428 155.972 124.238 156.85 128.878C158.216 136.01 156.124 142.913 153.303 146.285Z" fill="#BBF3FD"/>
<path id="Vector_2" d="M164.604 94.8656C163.592 94.7736 157.914 93.7666 158.714 92.8701C159.009 92.5369 159.586 92.5158 160.011 92.4504C163.133 92.0015 166.313 92.6544 169.006 94.2968C168.115 95.1795 165.853 94.9789 164.604 94.8656Z" fill="#10B5EA"/>
<path id="Vector_3" d="M180.066 41.2654C179.617 74.5192 159.879 84.5428 154.99 86.5181C150.614 74.3995 141.754 38.6413 175.705 9.71819C175.705 9.71819 157.24 7.15292 134.93 21.776C134.93 21.776 135.185 9.46691 144.933 0.999756C144.933 0.999756 121.628 4.86561 103.403 23.0177L106.238 23.8737C106.336 23.9017 106.419 23.9671 106.468 24.0556C106.518 24.1441 106.531 24.2486 106.504 24.3465C106.477 24.4444 106.413 24.5277 106.325 24.5784C106.237 24.6291 106.132 24.6431 106.034 24.6174C104.952 24.2925 103.867 23.9611 102.784 23.6362C102.539 23.8866 102.294 24.1452 102.048 24.4002C102.083 24.4699 102.096 24.549 102.085 24.6264C102.073 24.7038 102.038 24.7756 101.983 24.8318C101.928 24.888 101.858 24.9256 101.781 24.9395C101.704 24.9534 101.624 24.9428 101.553 24.9092C91.2169 35.995 82.9043 52.0107 82.1523 74.973C103.486 79.1987 133.737 85.2709 156.452 90.1649C155.968 89.0697 155.52 87.9584 155.11 86.8329C161.973 86.4056 168.652 84.4454 174.657 81.0967C201.318 65.6968 180.064 41.3575 180.066 41.2654ZM127.608 30.453C127.58 30.5511 127.515 30.6343 127.427 30.6847C127.338 30.7351 127.233 30.7488 127.134 30.7227C126.066 30.3322 124.967 30.0302 123.848 29.8197C123.75 29.7916 123.667 29.7262 123.617 29.6377C123.567 29.5491 123.553 29.4443 123.579 29.3457C123.608 29.2488 123.674 29.1669 123.762 29.1168C123.85 29.0667 123.954 29.0521 124.053 29.076C125.17 29.2871 126.268 29.5891 127.336 29.979C127.434 30.0074 127.517 30.0726 127.568 30.161C127.619 30.2494 127.633 30.3541 127.608 30.453ZM134.88 31.5805C131.38 30.3748 127.821 29.349 124.217 28.5072C123.733 28.3977 123.94 27.6539 124.422 27.7644C128.029 28.6023 131.589 29.6291 135.088 30.8405C135.552 31.0025 135.354 31.7416 134.883 31.5769L134.88 31.5805Z" fill="#FFD400"/>
<path id="Vector_4" d="M56.0671 69.8589L38.3026 80.5158C41.2314 81.2742 161.723 112.518 171.608 108.97C182.409 105.093 186.151 98.6365 187.071 97.6296C189.903 96.1771 59.3319 70.5115 56.0671 69.8589ZM59.6246 77.1782C57.0115 78.141 53.9667 76.4419 54.0219 76.0157L54.3358 73.4615C59.5243 75.5012 60.5626 73.7901 60.5626 73.7901C60.0968 77.1626 60.338 76.9178 59.6246 77.1782ZM68.8548 79.229C66.1009 80.2415 63.2052 78.4337 63.2521 78.0665L63.566 75.5122C68.7545 77.5519 69.7928 75.8418 69.7928 75.8418C69.3261 79.2189 69.5663 78.9676 68.8548 79.229ZM78.5986 81.2807C76.0214 82.2324 72.9398 80.5609 72.9959 80.1181L73.3098 77.5639C78.4992 79.6045 79.5366 77.8925 79.5366 77.8925C79.0727 81.2567 79.3129 81.0239 78.5986 81.2807ZM168.986 99.3213C168.831 99.9601 168.618 99.9804 167.964 100.22C163.127 101.987 157.529 98.8657 157.631 98.0695L158.214 93.3652C167.774 97.1215 169.685 93.968 169.685 93.968C168.897 99.9841 169.042 99.0903 168.985 99.3213H168.986ZM38.1157 80.6308L38.2427 80.6704V80.5507L38.1157 80.6308Z" fill="#BBF3FD"/>
<path id="Vector_5" d="M50.155 45.3413C50.0078 45.3735 50.0041 45.357 50.1495 45.3965L50.155 45.3413Z" fill="#BBF3FD"/>
<path id="Vector_6" d="M50.1696 45.2417C49.7894 47.7794 51.3662 36.492 45.9355 76.1456L50.1696 73.7055L52.4707 50.3704L178.255 79.0947L175.711 107.948L179.353 105.328L182.506 76.2698L50.1696 45.2417Z" fill="#10B5EA"/>
<path id="Vector_7" d="M74.0577 76.8884C71.6544 77.3091 74.9607 78.6971 78 78.6253C78.2773 78.6552 78.5576 78.6146 78.8151 78.5073C79.0725 78.4 79.2987 78.2294 79.4727 78.0114C77.8727 76.9704 75.9397 76.5695 74.0577 76.8884ZM68.2534 76.5745C68.5314 76.6053 68.8127 76.5651 69.0711 76.4577C69.3294 76.3504 69.5563 76.1793 69.7307 75.9606C68.129 74.9208 66.1945 74.5218 64.3121 74.8432C61.8849 75.2694 65.2638 76.6454 68.2534 76.5745ZM59.0204 74.5238C59.2977 74.5538 59.578 74.5134 59.8354 74.4062C60.0929 74.299 60.3191 74.1286 60.4931 73.9108C58.892 72.8702 56.9577 72.471 55.0754 72.7924C52.6602 73.2168 56.018 74.5947 59.0204 74.5238ZM31.1853 69.3748C27.9224 71.3078 26.4699 75.0926 26.3005 78.7348C26.2557 79.9442 26.3059 81.1552 26.4506 82.3568C26.5049 82.8409 27.279 82.8511 27.2191 82.3568C26.8402 79.8549 27.0328 77.2996 27.7825 74.8828C28.4423 72.876 29.784 71.1637 31.5747 70.0431C31.6633 69.9915 31.7278 69.9067 31.7539 69.8076C31.7801 69.7084 31.7658 69.6029 31.7141 69.5143C31.6625 69.4257 31.5778 69.3612 31.4786 69.335C31.3794 69.3089 31.2739 69.3232 31.1853 69.3748Z" fill="#10B5EA"/>
<path id="Vector_8" d="M31.9541 63.4029C28.4748 63.5723 24.9311 67.3397 23.1326 70.3827C21.6717 72.835 20.7706 75.5797 20.4937 78.4208C20.2168 81.2618 20.5711 84.1289 21.531 86.8172C21.7059 87.2774 22.4515 87.0767 22.2747 86.6128C21.105 83.3392 20.8709 79.8043 21.5989 76.405C22.3268 73.0057 23.9878 69.8767 26.3956 67.3691C27.8628 65.8771 29.7736 64.2755 31.9541 64.1715C32.4484 64.1457 32.453 63.3781 31.9541 63.4029ZM185.934 152.412C187.128 151.157 187.927 149.58 188.232 147.875C188.538 146.171 188.337 144.414 187.654 142.822C187.456 142.369 186.792 142.763 186.992 143.212C187.592 144.655 187.761 146.241 187.476 147.778C187.192 149.315 186.467 150.736 185.39 151.869C185.046 152.222 185.589 152.766 185.934 152.412Z" fill="#10B5EA"/>
<path id="Vector_9" d="M189.451 135.019C189.378 134.95 189.281 134.911 189.181 134.912C189.08 134.913 188.984 134.954 188.913 135.025C188.842 135.096 188.801 135.192 188.8 135.293C188.799 135.393 188.837 135.49 188.907 135.563C190.186 137.224 191.113 139.127 191.632 141.158C192.151 143.189 192.251 145.304 191.925 147.374C191.6 149.445 190.856 151.428 189.739 153.201C188.622 154.975 187.156 156.502 185.429 157.691C185.025 157.967 185.409 158.639 185.818 158.354C187.646 157.106 189.198 155.497 190.379 153.625C191.561 151.754 192.346 149.66 192.686 147.473C193.027 145.286 192.915 143.053 192.359 140.911C191.802 138.769 190.813 136.764 189.451 135.019ZM23.6266 125.71C23.9156 125.31 23.252 124.921 22.9629 125.32C22.0651 126.654 21.7136 128.282 21.9809 129.868C22.2483 131.454 23.1141 132.876 24.3998 133.842C24.8038 134.132 25.1877 133.463 24.7891 133.178C23.6783 132.317 22.9391 131.064 22.7229 129.675C22.5068 128.286 22.8301 126.868 23.6266 125.71Z" fill="#10B5EA"/>
<path id="Vector_10" d="M19.6348 124.692C19.8493 124.231 20.1089 123.624 20.6584 123.495C21.1416 123.385 20.9345 122.642 20.4531 122.751C19.3854 122.992 18.9169 124.303 18.5975 125.222C17.8854 127.323 17.808 129.587 18.3751 131.731C18.9421 133.875 20.1285 135.805 21.7859 137.28C22.1596 137.599 22.7064 137.055 22.329 136.736C20.6661 135.269 19.5099 133.315 19.0259 131.151C18.542 128.988 18.7551 126.726 19.6348 124.692ZM146.992 111.794C135.991 107.941 126.828 114.528 123.602 125.33C120.28 136.511 124.296 149.528 136.344 153.128C141.235 154.584 146.522 155.492 151.417 153.576C159.365 150.463 163.761 141.218 163.641 133.025C163.502 123.437 155.747 114.86 146.992 111.794ZM153.302 146.285C151.974 147.792 150.324 148.981 148.474 149.765C146.624 150.55 144.622 150.908 142.615 150.816C135.936 150.585 129.821 145.537 127.902 139.131C123.962 125.989 137.087 112.341 145.704 117.806L148.558 118.405C153.16 119.428 155.972 124.237 156.85 128.878C158.216 136.009 156.124 142.913 153.302 146.285Z" fill="#10B5EA"/>
<path id="Vector_11" d="M84.1415 118.651C93.4801 120.791 102.939 122.369 112.466 123.375C112.55 123.375 112.632 123.347 112.699 123.296C112.766 123.244 112.813 123.172 112.834 123.091C113.626 119.464 114.17 115.788 114.46 112.088C114.509 111.779 114.514 111.465 114.475 111.154C114.335 110.517 113.746 110.392 113.193 110.277C88.3866 105.064 85.709 104.175 85.512 105.399L83.9252 117.258C83.93 117.357 83.9726 117.45 84.0442 117.518C84.1157 117.586 84.2107 117.624 84.3095 117.624C84.4083 117.624 84.5033 117.586 84.5748 117.518C84.6463 117.45 84.6889 117.357 84.6938 117.258L86.2355 105.743C87.4376 105.68 88.6419 105.811 89.8022 106.132C114.785 111.437 113.653 111.01 113.721 111.351C113.488 115.123 112.963 118.871 112.15 122.562C102.795 121.563 93.508 120.006 84.3394 117.897C83.8672 117.796 83.6583 118.539 84.1415 118.651ZM171.201 109.814C171.645 115.386 170.763 117.865 162.703 163.324C162.618 163.808 163.358 164.018 163.447 163.529C171.939 115.701 172.392 115.122 171.974 109.814C171.929 109.329 171.159 109.324 171.201 109.814ZM82.331 91.5472C68.1617 87.9575 53.1364 85.0783 40.8899 80.3859C40.4297 80.2073 40.2263 80.9501 40.6846 81.1296C53.2312 85.9491 69.3914 89.0215 82.1211 92.2955C82.6053 92.4106 82.8096 91.6687 82.331 91.5472Z" fill="#213B55"/>
<path id="Vector_12" d="M169.713 109.977C170.203 110.038 170.203 109.265 169.713 109.21C158.543 107.894 147.577 105.922 136.599 103.677C131.131 102.558 85.9934 92.984 85.2948 92.8542C84.8107 92.7622 84.6008 93.5086 85.0896 93.5979C90.603 94.6205 119.117 100.723 119.621 100.837C118.902 106.765 116.612 127.146 116.164 131.412C106.616 129.291 97.1099 126.938 87.6447 124.352C79.6764 122.168 79.6921 122.076 79.5071 122.076C80.8196 113.717 81.8947 104.139 82.5004 94.4908C82.5307 93.9965 81.764 93.9965 81.7318 94.4908C80.8495 108.579 78.991 122.589 76.1695 136.421C76.0701 136.905 76.8139 137.109 76.9133 136.626C77.8466 132.046 78.6732 127.445 79.3929 122.825C91.525 126.323 103.763 129.443 116.089 132.18C115.594 136.967 115.108 141.755 114.632 146.545C114.582 147.039 115.356 147.033 115.401 146.545C115.98 140.582 119.976 104.275 120.376 101.002C135.705 104.356 153.444 108.13 169.713 109.977ZM118.249 94.3812C118.33 94.4014 118.416 94.3953 118.494 94.3639C118.572 94.3325 118.638 94.2774 118.683 94.2063C119.825 92.0723 121.475 90.2527 123.488 88.9083C123.886 88.6432 123.533 88.0099 123.129 88.229C123.037 88.1774 96.7838 82.2084 90.4134 80.686C89.9348 80.5709 89.7249 81.3091 90.2091 81.4288C88.0135 82.4069 85.8658 83.4807 83.766 84.6503C83.592 84.7488 83.4208 85.8901 83.8359 86.031C95.0099 89.9202 106.535 92.7168 118.249 94.3812ZM84.1323 85.3158C84.6689 85.047 87.3879 83.4648 91.4415 81.7187C95.2531 82.6318 120.085 88.3192 122.305 88.8061C120.605 90.0983 119.19 91.7277 118.149 93.5924C106.571 91.9288 95.1801 89.1572 84.1323 85.3158ZM62.4982 99.8247C62.0141 99.7143 61.8097 100.458 62.2939 100.568C70.8954 102.524 72.9618 117.037 68.2768 125.689C67.5074 127.111 66.4655 128.367 65.2106 129.385C63.9556 130.404 62.5122 131.165 60.9629 131.626C49.7022 135.049 37.4566 123.23 42.6461 109.443C44.9132 103.414 50.9761 97.5696 57.1403 99.011C57.9199 99.1935 58.6645 99.502 59.3448 99.9241C59.7645 100.188 60.1538 99.5201 59.7341 99.2605C55.0951 96.3712 47.4002 98.5554 42.995 106.825C39.9915 112.468 39.7375 119.547 43.2048 125.049C46.5129 130.296 52.6743 133.72 58.9361 132.852C66.7019 131.785 70.4518 125.805 71.3391 117.984C71.7977 114.402 71.3872 110.762 70.1425 107.372C68.7618 103.838 66.2288 100.65 62.4982 99.8247Z" fill="#213B55"/>
<path id="Vector_13" d="M153.579 146.554C157.551 141.807 158.982 132.406 156.313 125.584C154.933 122.04 152.399 118.861 148.669 118.037C148.185 117.926 147.981 118.67 148.465 118.78C156.95 120.713 159.205 135.116 154.448 143.901C151.355 149.625 144.429 151.783 138.322 149.594C135.563 148.582 133.126 146.846 131.267 144.569C129.408 142.293 128.195 139.558 127.755 136.652C125.997 124.41 137.779 113.332 145.519 118.136C145.939 118.4 146.328 117.732 145.909 117.473C142.841 115.562 138.949 116.061 135.936 117.802C127.771 122.52 123.954 134.655 129.379 143.258C135.363 152.759 147.743 153.527 153.579 146.554ZM129.5 93.6028C129.592 93.6267 145.996 97.8037 146.344 97.8239C147.08 97.869 147.547 97.2799 148.021 96.816L149.812 95.0672C150.167 94.7229 149.623 94.179 149.268 94.5241C148.774 95.0028 147.312 96.4295 147.073 96.6642C146.478 97.245 146.399 97.0738 145.401 96.828C145.072 96.7433 131.227 93.2456 129.7 92.8627C129.601 92.8362 129.497 92.8498 129.409 92.9005C129.321 92.9511 129.256 93.0347 129.23 93.1329C129.203 93.231 129.217 93.3356 129.267 93.4238C129.318 93.5119 129.402 93.5763 129.5 93.6028ZM147.037 93.4684C147.072 93.5475 147.129 93.6149 147.202 93.6626C147.274 93.7102 147.359 93.7361 147.445 93.7371C147.532 93.7382 147.617 93.7144 147.69 93.6686C147.764 93.6227 147.823 93.5568 147.86 93.4785C148.105 92.9262 147.381 92.7652 147.011 92.6648L133.171 88.9831C133.075 88.9615 132.974 88.978 132.889 89.029C132.804 89.0801 132.742 89.1618 132.716 89.2572C132.69 89.3527 132.701 89.4545 132.748 89.5418C132.795 89.629 132.873 89.6949 132.967 89.7259C138.965 91.333 146.435 93.3045 147.037 93.4684ZM113.559 147.802C102.435 145.735 91.434 143.054 80.6068 139.769C80.1328 139.624 79.9276 140.369 80.4016 140.513C91.2263 143.798 102.225 146.481 113.346 148.55C113.839 148.63 114.047 147.892 113.559 147.802ZM117.007 38.0476C116.001 40.8595 118.13 43.6568 120.228 43.5205C121.641 43.4349 123.041 42.1086 122.908 39.4596C122.903 39.3609 122.86 39.2679 122.789 39.1997C122.717 39.1316 122.622 39.0936 122.523 39.0936C122.425 39.0936 122.33 39.1316 122.258 39.1997C122.186 39.2679 122.144 39.3609 122.139 39.4596C122.139 40.9083 121.824 42.4372 120.398 42.7271C118.741 43.0585 116.893 40.6589 117.759 38.2519C117.914 37.788 117.172 37.5837 117.007 38.0476ZM105.536 20.3051C105.551 20.7994 106.319 20.7994 106.305 20.3051C106.2 16.8581 103.525 14.4226 100.956 12.5016C100.557 12.208 100.177 12.8698 100.567 13.1653C102.906 14.9169 105.439 17.1618 105.536 20.3051ZM104.962 21.4723C105.192 21.9122 105.882 21.5772 105.656 21.1381C104.054 18.0804 100.586 17.0569 97.4381 16.4531C96.9539 16.361 96.8996 17.1269 97.3782 17.2217C100.237 17.7702 103.507 18.6842 104.962 21.4723ZM154.067 33.9314C155.058 33.3788 156.151 33.0342 157.28 32.9189C160.732 32.2028 164.394 31.7159 167.553 33.3027C167.992 33.5227 168.387 32.8591 167.942 32.6391C164.536 30.9234 160.758 31.4149 157.075 32.1789C155.881 32.3025 154.724 32.671 153.678 33.2613C153.279 33.5522 153.662 34.2204 154.067 33.9314ZM153.359 36.62C156.669 36.659 159.913 37.5565 162.773 39.2248C162.861 39.2748 162.965 39.2882 163.063 39.2621C163.16 39.2359 163.244 39.1723 163.295 39.0851C163.346 38.9979 163.361 38.894 163.336 38.7959C163.311 38.6979 163.249 38.6136 163.162 38.5612C160.183 36.8274 156.806 35.8939 153.359 35.8514C153.26 35.8563 153.167 35.8988 153.099 35.9704C153.031 36.0419 152.993 36.1369 152.993 36.2357C152.993 36.3345 153.031 36.4295 153.099 36.501C153.167 36.5726 153.26 36.6152 153.359 36.62ZM151.567 39.2092C154.055 40.7715 156.121 42.9208 157.584 45.4682C157.637 45.5547 157.721 45.6172 157.819 45.642C157.917 45.6669 158.021 45.6521 158.108 45.6009C158.196 45.5497 158.259 45.4663 158.285 45.3686C158.311 45.2709 158.298 45.1668 158.248 45.0789C156.712 42.4208 154.55 40.1776 151.951 38.5437C151.537 38.2814 151.149 38.9487 151.567 39.2092ZM107.267 18.8683C107.212 19.3571 107.981 19.3571 108.036 18.8683C108.203 17.3063 108.044 15.7268 107.57 14.2292C107.096 12.7315 106.317 11.3483 105.282 10.1665C104.952 9.79276 104.413 10.3413 104.738 10.7104C105.7 11.8222 106.421 13.1209 106.856 14.5248C107.291 15.9288 107.431 17.4076 107.267 18.8683ZM154.087 62.3049C154.136 62.7946 154.905 62.7992 154.855 62.3049C154.021 53.7816 145.966 46.5497 134.554 46.9833C131.867 47.1203 129.198 47.5042 126.581 48.1301C119.507 49.7538 112.728 53.3049 109.852 59.9348C109.261 61.023 108.993 62.2571 109.079 63.4923C109.143 64.0145 109.395 64.4956 109.788 64.8456C110.18 65.1955 110.687 65.3905 111.213 65.394C112.166 65.2434 113.05 64.8064 113.748 64.1412C113.004 65.3699 112.542 66.7485 112.396 68.1774C112.282 70.148 114.597 70.6626 116.129 70.3377C117.866 69.8026 119.451 68.8621 120.753 67.5938C123.33 65.4335 121.458 66.3715 121.472 68.8364C121.483 71.0271 123.28 72.3672 125.478 72.242C127.814 72.1067 129.569 70.3303 131.161 68.8143L134.214 65.9094C137.068 63.1987 138.69 61.8484 144.922 62.4964C145.415 62.5461 145.41 61.7785 144.922 61.7278C136.781 60.8727 135.866 63.4325 129.735 69.1024C128.945 69.8935 128.036 70.5551 127.04 71.063C125.459 71.7993 122.959 71.6318 122.355 69.6823C121.594 67.1971 124.182 64.9577 125.309 62.9419C125.513 62.5737 124.99 62.1236 124.705 62.4817C123.622 63.8223 122.436 65.0766 121.158 66.2334C119.501 67.7199 116.99 69.9253 114.781 69.6712C114.073 69.5912 113.21 69.2221 113.165 68.4084C113.188 67.6187 113.364 66.8409 113.684 66.1183C114.279 64.644 115.093 63.268 116.099 62.0371C116.837 61.2763 117.514 60.4589 118.124 59.5924C118.378 59.238 117.805 58.799 117.521 59.1322C116.816 59.9324 116.134 60.7525 115.475 61.5916C114.579 62.5313 113.584 63.3711 112.507 64.0961C112.054 64.4786 111.471 64.67 110.88 64.63C110.662 64.5716 110.462 64.4606 110.296 64.3067C110.131 64.1528 110.006 63.9607 109.932 63.7473C109.513 62.6943 110.056 61.4121 110.471 60.4392C113.082 54.2363 119.337 50.7571 125.883 49.1132C133.056 47.3165 140.363 46.8498 146.643 50.8003C148.668 52.0355 150.389 53.7113 151.678 55.703C152.967 57.6948 153.79 59.9513 154.087 62.3049ZM88.6773 67.0802C89.6778 67.7365 91.8427 68.668 92.5836 67.754C92.8349 67.3377 92.9646 66.8595 92.9583 66.3733C93.0582 65.0351 92.8764 63.6909 92.4244 62.4274C93.53 63.9776 94.9075 65.3145 96.49 66.3733C97.5283 67.0323 99.2348 67.8755 100.342 66.8878C100.596 66.5708 100.775 66.2009 100.867 65.8053C100.958 65.4097 100.96 64.9986 100.871 64.6024C100.821 63.7341 100.696 62.8717 100.497 62.0251C100.021 59.9891 99.6269 59.9624 100.247 60.4981C101.311 61.5243 102.605 62.2817 104.021 62.7072C104.659 62.7937 105.307 62.6436 105.842 62.2851C106.377 61.9266 106.762 61.3845 106.925 60.7614C107.414 59.2647 106.741 57.7175 106.092 56.3801C102.141 48.3098 96.0914 41.4516 88.577 36.5252C88.1628 36.2491 87.7743 36.9201 88.1885 37.1888C94.9403 41.6271 100.498 47.6563 104.374 54.7463C105.109 55.9503 105.705 57.2343 106.15 58.5735C106.459 59.6909 106.354 61.2078 105.192 61.8116C104.824 61.9474 104.428 61.991 104.039 61.9387C103.651 61.8864 103.281 61.7397 102.962 61.5115C101.224 60.4993 99.7218 59.1284 98.5555 57.4901C98.3918 57.2356 98.2205 56.986 98.0419 56.7418C97.7528 56.3534 97.1085 56.7022 97.3782 57.1311C100.115 60.823 100.324 65.2899 100.023 66.0171C99.8036 66.5463 99.1841 66.596 98.6853 66.516C98.0319 66.371 97.4143 66.0962 96.8692 65.7078C94.2699 64.0593 92.4419 61.2593 90.7879 58.6628C90.7355 58.5762 90.6512 58.5138 90.5531 58.4889C90.4551 58.4641 90.3512 58.4789 90.264 58.53C90.1767 58.5812 90.1132 58.6647 90.087 58.7624C90.0608 58.8601 90.0742 58.9642 90.1242 59.0521C91.2462 61.3164 92.3848 63.6617 92.1998 66.1966C92.175 66.5261 92.1943 67.3011 91.7654 67.3591C90.8806 67.3229 90.0229 67.0443 89.2857 66.5537C87.7641 65.4553 86.3598 64.203 85.0949 62.8167C76.4059 53.7356 68.0667 37.2763 80.3602 35.5201C82.6312 35.1977 84.9452 35.6307 86.9459 36.7525C87.0339 36.8025 87.1379 36.8159 87.2356 36.7898C87.3333 36.7636 87.4168 36.7 87.468 36.6128C87.5192 36.5256 87.534 36.4217 87.5091 36.3236C87.4843 36.2256 87.4218 36.1412 87.3353 36.0889C85.6227 35.1123 83.6787 34.615 81.7076 34.6494C79.7365 34.6837 77.811 35.2484 76.1335 36.284C72.6469 38.7039 73.12 43.6531 74.2576 47.2005C76.591 54.4821 84.2886 64.2066 88.6773 67.0802ZM185.65 98.8014C182.605 103.136 177.918 105.991 173.276 108.591C172.842 108.831 173.231 109.499 173.665 109.255C178.475 106.561 183.153 103.712 186.312 99.1908C186.602 98.7821 185.933 98.401 185.65 98.8014ZM160.603 91.6072C159.74 91.6901 158.553 91.7472 157.999 92.5277C156.457 94.6889 164.868 95.6572 164.964 95.6572C166.536 95.7723 168.975 95.9913 169.913 94.3796C169.962 94.2913 169.975 94.1871 169.949 94.0893C169.923 93.9915 169.86 93.9077 169.773 93.8559C167.051 92.1084 163.824 91.3172 160.603 91.6072ZM164.605 94.8656C163.592 94.7736 157.914 93.7666 158.714 92.8701C159.009 92.5369 159.586 92.5157 160.011 92.4504C163.133 92.0014 166.313 92.6543 169.006 94.2968C168.115 95.1795 165.853 94.9788 164.605 94.8656ZM76.9978 78.9898C77.9412 79.0542 79.2428 79.1389 79.807 78.2065C79.8565 78.1182 79.8696 78.014 79.8435 77.9162C79.8174 77.8184 79.7541 77.7346 79.6671 77.6828C78.3157 76.8108 76.7335 76.3647 75.1256 76.4025C74.497 76.4172 73.5609 76.4172 73.1108 76.9262C71.9979 78.189 75.3741 78.8711 76.9978 78.9898ZM74.6727 77.1931C76.1162 77.0575 77.5666 77.3675 78.8285 78.0813C78.1236 78.2665 77.3878 78.3022 76.6683 78.1863C75.653 78.0821 74.6596 77.8229 73.7229 77.4177C74.0162 77.2666 74.3429 77.1896 74.6727 77.1931ZM67.2531 76.9335C68.1956 76.9989 69.498 77.0836 70.0623 76.1502C70.1118 76.0619 70.1249 75.9578 70.0988 75.8599C70.0726 75.7621 70.0093 75.6784 69.9223 75.6265C68.5705 74.7565 66.989 74.3115 65.3818 74.3489C64.7531 74.3646 63.817 74.3646 63.366 74.8736C62.256 76.1318 65.6211 76.8139 67.2531 76.9335ZM64.9225 75.1424C66.3676 75.0075 67.8193 75.3187 69.082 76.0343C68.3771 76.2194 67.6412 76.2552 66.9217 76.1392C65.9064 76.035 64.913 75.7758 63.9763 75.3706C64.2674 75.216 64.5929 75.1375 64.9225 75.1424ZM58.0173 74.8828C58.9608 74.9482 60.2632 75.0328 60.8265 74.0995C60.8761 74.0112 60.8892 73.907 60.863 73.8092C60.8369 73.7114 60.7736 73.6276 60.6866 73.5758C59.3352 72.7057 57.7538 72.261 56.147 72.2991C55.5183 72.3138 54.5822 72.3138 54.1312 72.8228C53.0203 74.0811 56.3845 74.7631 58.0173 74.8828ZM55.6923 73.0889C57.1361 72.9522 58.5871 73.2623 59.849 73.9771C59.1441 74.1623 58.4083 74.198 57.6887 74.082C56.6734 73.9778 55.6801 73.7186 54.7433 73.3134C55.0356 73.1597 55.3621 73.0825 55.6923 73.0889Z" fill="#213B55"/>
<path id="Vector_14" d="M98.5113 20.2407C98.5113 20.2407 93.3817 27.9338 97.4832 32.5489C101.585 37.164 115.948 37.6776 120.563 31.0117C121.025 33.8383 122.363 36.4484 124.388 38.4735C126.413 40.4987 129.023 41.8365 131.85 42.2982C142.107 44.349 149.798 37.6831 151.852 34.3502C144.391 32.3538 103.404 21.5441 98.5113 20.2407ZM102.043 24.7656C101.708 25.34 101.21 24.4214 98.7056 24.0873C98.608 24.0592 98.5254 23.9939 98.4758 23.9053C98.4261 23.8168 98.4133 23.7123 98.4402 23.6144C98.4671 23.5165 98.5315 23.4332 98.6194 23.3825C98.7073 23.3318 98.8117 23.3178 98.9099 23.3435C99.9488 23.4912 100.96 23.794 101.909 24.2419C101.996 24.2938 102.059 24.378 102.084 24.4761C102.109 24.5742 102.094 24.6783 102.043 24.7656ZM106.032 24.6137C103.639 23.8891 101.246 23.1696 98.8528 22.4553C98.7588 22.4244 98.6803 22.3585 98.6335 22.2712C98.5867 22.184 98.5752 22.0821 98.6015 21.9867C98.6278 21.8912 98.6897 21.8095 98.7745 21.7585C98.8594 21.7075 98.9605 21.691 99.0572 21.7125C101.45 22.4305 103.843 23.1496 106.237 23.87C106.711 24.0145 106.506 24.7573 106.032 24.6137ZM127.608 30.453C127.58 30.5511 127.515 30.6343 127.426 30.6847C127.338 30.7352 127.233 30.7488 127.134 30.7227C126.066 30.3323 124.967 30.0303 123.848 29.8198C123.75 29.7916 123.667 29.7263 123.617 29.6377C123.567 29.5491 123.553 29.4443 123.579 29.3457C123.608 29.2488 123.674 29.167 123.762 29.1168C123.85 29.0667 123.954 29.0521 124.053 29.0761C125.17 29.2872 126.268 29.5892 127.336 29.979C127.434 30.0074 127.517 30.0727 127.568 30.1611C127.619 30.2495 127.633 30.3541 127.608 30.453ZM134.88 31.5806C131.38 30.3749 127.821 29.3491 124.217 28.5072C123.733 28.3977 123.94 27.654 124.422 27.7644C128.029 28.6023 131.589 29.6291 135.088 30.8405C135.552 31.0025 135.354 31.7417 134.883 31.5769L134.88 31.5806ZM92.7374 111.894C92.5146 112.449 92.5146 113.07 92.7374 113.625C92.7511 113.681 92.7777 113.733 92.8149 113.776C92.8522 113.82 92.8991 113.854 92.9519 113.876C93.0047 113.898 93.062 113.908 93.1192 113.904C93.1764 113.901 93.232 113.883 93.2814 113.854C93.5098 114.018 93.7776 114.119 94.0575 114.146C94.3374 114.173 94.6194 114.125 94.8749 114.007C95.1303 113.89 95.35 113.707 95.5117 113.476C95.6733 113.246 95.7711 112.978 95.7951 112.697C95.8212 112.324 95.7159 111.952 95.4976 111.648C95.2792 111.343 94.9614 111.125 94.599 111.029C94.2366 110.934 93.8523 110.968 93.5125 111.126C93.1726 111.284 92.8985 111.555 92.7374 111.894ZM95.0229 112.607C95.0174 112.724 94.9876 112.838 94.9353 112.943C94.883 113.048 94.8095 113.14 94.7194 113.215C94.6293 113.29 94.5246 113.345 94.412 113.376C94.2994 113.408 94.1814 113.416 94.0656 113.4C93.9497 113.383 93.8386 113.343 93.7393 113.281C93.64 113.219 93.5546 113.137 93.4888 113.041C93.4229 112.944 93.378 112.835 93.3569 112.72C93.3358 112.604 93.3389 112.486 93.3661 112.372C93.4137 112.168 93.5362 111.988 93.7095 111.87C93.8828 111.751 94.0944 111.701 94.3024 111.731C94.5105 111.76 94.6999 111.866 94.8334 112.029C94.967 112.191 95.034 112.397 95.0229 112.607ZM103.201 115.337C103.326 115.564 103.501 115.76 103.712 115.91C103.923 116.06 104.165 116.161 104.42 116.205C104.675 116.25 104.937 116.236 105.187 116.165C105.436 116.095 105.666 115.969 105.86 115.797C106.155 115.565 106.35 115.23 106.405 114.859C106.461 114.488 106.373 114.11 106.159 113.802C106.001 113.588 105.798 113.41 105.565 113.281C105.332 113.152 105.074 113.074 104.809 113.052C104.543 113.031 104.276 113.067 104.025 113.158C103.775 113.248 103.546 113.391 103.356 113.577C103.299 113.561 103.239 113.557 103.181 113.568C103.122 113.579 103.068 113.603 103.02 113.639C102.973 113.675 102.935 113.721 102.909 113.774C102.883 113.828 102.871 113.886 102.871 113.945C102.863 114.028 102.86 114.112 102.861 114.195C102.706 114.452 102.59 114.732 102.517 115.023C102.498 115.109 102.509 115.199 102.548 115.278C102.587 115.357 102.652 115.42 102.732 115.457C102.812 115.494 102.902 115.502 102.988 115.48C103.073 115.458 103.148 115.408 103.201 115.337ZM104.498 113.829C104.505 113.829 104.512 113.828 104.518 113.825C105.323 113.725 106.028 114.511 105.466 115.114C104.789 115.85 103.816 115.357 103.65 114.395C103.85 114.105 104.154 113.903 104.498 113.829Z" fill="#213B55"/>
<path id="Vector_15" d="M113.718 111.35C113.65 111.01 114.782 111.436 89.7991 106.131C88.6388 105.81 87.4344 105.679 86.2323 105.742C84.4688 118.927 84.7108 116.994 84.6372 117.965C93.7088 120.039 102.895 121.573 112.148 122.561C112.961 118.87 113.486 115.122 113.718 111.35ZM109.018 118.57C102.563 116.753 96.0402 115.183 89.4649 113.864C89.6048 112.413 89.7411 110.956 89.8791 109.504C89.9712 109.535 108.84 113.002 109.422 113.491C109.555 113.607 109.537 113.382 109.018 118.57Z" fill="#10B5EA"/>
<path id="Vector_16" d="M88.667 114.159C88.6676 114.243 88.6957 114.325 88.7471 114.391C88.7984 114.458 88.8702 114.506 88.9514 114.527C96.0002 115.934 103.062 117.657 109.253 119.418C109.31 119.432 109.369 119.433 109.427 119.422C109.484 119.41 109.538 119.386 109.585 119.35C109.632 119.315 109.671 119.27 109.698 119.218C109.725 119.166 109.74 119.108 109.742 119.049C109.834 118.101 110.265 113.827 110.265 113.696C110.271 112.803 109.447 112.668 108.749 112.509C102.364 111.03 95.9424 109.716 89.4899 108.567C89.4062 108.55 89.3191 108.56 89.2417 108.596C89.1644 108.632 89.1011 108.693 89.0615 108.769C89.0219 108.845 89.0083 108.931 89.0226 109.016C89.037 109.1 89.0786 109.177 89.141 109.236C88.9809 110.871 88.8262 112.518 88.667 114.159ZM109.422 113.491C109.555 113.607 109.537 113.382 109.018 118.57C102.563 116.753 96.0403 115.183 89.465 113.865C89.6049 112.413 89.7412 110.956 89.8792 109.504C89.9759 109.539 108.838 113 109.422 113.491Z" fill="#213B55"/>
<path id="Vector_17" d="M77.4711 114.813C77.3312 105.228 69.5728 96.6485 60.8221 93.5835C49.8302 89.7323 40.6589 96.3089 37.4318 107.119C34.109 118.3 38.1259 131.317 50.1754 134.917C55.0648 136.373 60.3527 137.281 65.2476 135.365C73.1956 132.25 77.5908 123.005 77.4711 114.813ZM71.3391 117.981C70.4518 125.804 66.7019 131.782 58.9361 132.849C52.6771 133.717 46.5102 130.294 43.2049 125.046C39.7375 119.547 39.9916 112.468 42.995 106.821C47.4048 98.552 55.0951 96.3678 59.7342 99.2571C59.8039 99.2972 59.8582 99.3595 59.8885 99.434C59.9189 99.5086 59.9235 99.5911 59.9017 99.6685L62.0316 100.116C62.0422 100.065 62.0628 100.018 62.0922 99.9756C62.1216 99.9333 62.1592 99.8974 62.2027 99.87C62.2462 99.8425 62.2948 99.824 62.3455 99.8157C62.3963 99.8073 62.4482 99.8092 62.4983 99.8213C66.2288 100.65 68.7619 103.834 70.1379 107.369C71.3842 110.759 71.7962 114.398 71.3391 117.981Z" fill="#10B5EA"/>
</g>
</g>
</g>
</g>
<g id="Group 43">
<path id="Vector 23" d="M55.9998 14.2857C55.9998 13.1428 55.3332 12 53.3332 12C51.3332 12 49.8621 12.7226 49.9998 14.8572C50.0866 16.2017 52.6666 17.9048 51.9998 21.3333C51.6665 23.0477 49.1109 24 48.6665 24H56.6665" stroke="black"/>
<path id="Vector 24" d="M48 18H55.3333" stroke="black"/>
</g>
<g id="Group 44">
<path id="Vector 25" d="M59.7639 111.015C55.6111 111.108 53.6125 114.615 53.69 118.076C53.7675 121.537 56.5983 124.243 60.059 124.166" stroke="black"/>
<path id="Vector 26" d="M50.9526 119.522L59.9504 119.321" stroke="black"/>
<path id="Vector 27" d="M50.8901 116.754L59.8879 116.552" stroke="black"/>
</g>
<path id="Vector 28" d="M145.525 130.023C145.525 130.023 145.525 128.091 142.671 128.091C140.855 128.091 139 129.25 139 131.568C139 134.891 145.498 131.748 145.933 135.045C146.341 138.136 144.833 139.802 142.671 139.682C139.816 139.523 139.408 136.977 139.408 136.977M142.263 125L142.671 142" stroke="black"/>
<g id="Group 46">
<g id="Group 45">
<path id="Vector 29" d="M76.5413 165.42L65.0413 162.92L61.9769 177.795" stroke="black"/>
<path id="Vector 30" d="M63.6504 169.327L73.9604 171.649" stroke="black"/>
<path id="Vector 31" d="M59.125 171.904L69.7676 174.3" stroke="black"/>
</g>
</g>
<path id="Vector 32" d="M7 100L12.8605 107.25M12.8605 107.25V114M12.8605 107.25L19 100.5M8.67442 107.75H17.8837M8.67442 111H17.8837" stroke="black"/>
<path id="Vector 33" d="M133 175H141.05M146.65 175H141.05M141.05 175C141.867 175.831 143.36 178.132 142.8 180.695C142.1 183.898 136.85 184.966 134.75 185.322L143.15 196M133 180.339H147" stroke="black"/>
</g>
</svg>
